<mxfile host="app.diagrams.net" agent="Mozilla/5.0 (Windows NT 10.0; Win64; x64) AppleWebKit/537.36 (KHTML, like Gecko) Chrome/130.0.0.0 Safari/537.36" version="24.8.4">
  <diagram name="PÃ¡gina-1" id="37WGcSRljtL9MsTasHbK">
    <mxGraphModel dx="1434" dy="738" grid="1" gridSize="10" guides="1" tooltips="1" connect="1" arrows="1" fold="1" page="1" pageScale="1" pageWidth="827" pageHeight="1169" math="0" shadow="0">
      <root>
        <mxCell id="0" />
        <mxCell id="1" parent="0" />
        <mxCell id="kWq-YQ7jtwYpPsozGL0Q-1" value="CAR" style="whiteSpace=wrap;html=1;align=center;" vertex="1" parent="1">
          <mxGeometry x="10" y="380" width="100" height="40" as="geometry" />
        </mxCell>
        <mxCell id="kWq-YQ7jtwYpPsozGL0Q-2" value="&lt;u&gt;car_id&lt;/u&gt;" style="ellipse;whiteSpace=wrap;html=1;align=center;" vertex="1" parent="1">
          <mxGeometry x="400" y="40" width="100" height="40" as="geometry" />
        </mxCell>
        <mxCell id="kWq-YQ7jtwYpPsozGL0Q-3" value="brand" style="ellipse;whiteSpace=wrap;html=1;align=center;" vertex="1" parent="1">
          <mxGeometry x="400" y="100" width="100" height="40" as="geometry" />
        </mxCell>
        <mxCell id="kWq-YQ7jtwYpPsozGL0Q-4" value="model" style="ellipse;whiteSpace=wrap;html=1;align=center;" vertex="1" parent="1">
          <mxGeometry x="400" y="160" width="100" height="40" as="geometry" />
        </mxCell>
        <mxCell id="kWq-YQ7jtwYpPsozGL0Q-5" style="edgeStyle=orthogonalEdgeStyle;rounded=0;orthogonalLoop=1;jettySize=auto;html=1;exitX=0.5;exitY=1;exitDx=0;exitDy=0;" edge="1" parent="1" source="kWq-YQ7jtwYpPsozGL0Q-4" target="kWq-YQ7jtwYpPsozGL0Q-4">
          <mxGeometry relative="1" as="geometry" />
        </mxCell>
        <mxCell id="kWq-YQ7jtwYpPsozGL0Q-6" value="plate" style="ellipse;whiteSpace=wrap;html=1;align=center;" vertex="1" parent="1">
          <mxGeometry x="400" y="280" width="100" height="40" as="geometry" />
        </mxCell>
        <mxCell id="kWq-YQ7jtwYpPsozGL0Q-7" value="color" style="ellipse;whiteSpace=wrap;html=1;align=center;" vertex="1" parent="1">
          <mxGeometry x="400" y="220" width="100" height="40" as="geometry" />
        </mxCell>
        <mxCell id="kWq-YQ7jtwYpPsozGL0Q-8" value="RESERVATION" style="whiteSpace=wrap;html=1;align=center;" vertex="1" parent="1">
          <mxGeometry x="20" y="1470" width="100" height="40" as="geometry" />
        </mxCell>
        <mxCell id="kWq-YQ7jtwYpPsozGL0Q-9" value="CUSTOMER" style="whiteSpace=wrap;html=1;align=center;" vertex="1" parent="1">
          <mxGeometry x="10" y="998" width="100" height="40" as="geometry" />
        </mxCell>
        <mxCell id="kWq-YQ7jtwYpPsozGL0Q-10" value="seats" style="ellipse;whiteSpace=wrap;html=1;align=center;" vertex="1" parent="1">
          <mxGeometry x="400" y="340" width="100" height="40" as="geometry" />
        </mxCell>
        <mxCell id="kWq-YQ7jtwYpPsozGL0Q-11" value="doors" style="ellipse;whiteSpace=wrap;html=1;align=center;" vertex="1" parent="1">
          <mxGeometry x="400" y="400" width="100" height="40" as="geometry" />
        </mxCell>
        <mxCell id="kWq-YQ7jtwYpPsozGL0Q-12" value="fuel" style="ellipse;whiteSpace=wrap;html=1;align=center;" vertex="1" parent="1">
          <mxGeometry x="400" y="460" width="100" height="40" as="geometry" />
        </mxCell>
        <mxCell id="kWq-YQ7jtwYpPsozGL0Q-13" value="location" style="ellipse;whiteSpace=wrap;html=1;align=center;" vertex="1" parent="1">
          <mxGeometry x="400" y="520" width="100" height="40" as="geometry" />
        </mxCell>
        <mxCell id="kWq-YQ7jtwYpPsozGL0Q-14" value="itv" style="ellipse;whiteSpace=wrap;html=1;align=center;" vertex="1" parent="1">
          <mxGeometry x="400" y="580" width="100" height="40" as="geometry" />
        </mxCell>
        <mxCell id="kWq-YQ7jtwYpPsozGL0Q-15" value="price_per_day" style="ellipse;whiteSpace=wrap;html=1;align=center;" vertex="1" parent="1">
          <mxGeometry x="400" y="700" width="100" height="40" as="geometry" />
        </mxCell>
        <mxCell id="kWq-YQ7jtwYpPsozGL0Q-16" value="state" style="ellipse;whiteSpace=wrap;html=1;align=center;" vertex="1" parent="1">
          <mxGeometry x="400" y="640" width="100" height="40" as="geometry" />
        </mxCell>
        <mxCell id="kWq-YQ7jtwYpPsozGL0Q-17" value="" style="endArrow=none;html=1;rounded=0;entryX=0;entryY=0.5;entryDx=0;entryDy=0;" edge="1" parent="1" target="kWq-YQ7jtwYpPsozGL0Q-2">
          <mxGeometry relative="1" as="geometry">
            <mxPoint x="80" y="379" as="sourcePoint" />
            <mxPoint x="240" y="379" as="targetPoint" />
          </mxGeometry>
        </mxCell>
        <mxCell id="kWq-YQ7jtwYpPsozGL0Q-18" value="" style="endArrow=none;html=1;rounded=0;entryX=0.03;entryY=0.725;entryDx=0;entryDy=0;entryPerimeter=0;" edge="1" parent="1" target="kWq-YQ7jtwYpPsozGL0Q-3">
          <mxGeometry relative="1" as="geometry">
            <mxPoint x="100" y="380" as="sourcePoint" />
            <mxPoint x="230" y="61" as="targetPoint" />
          </mxGeometry>
        </mxCell>
        <mxCell id="kWq-YQ7jtwYpPsozGL0Q-19" value="" style="endArrow=none;html=1;rounded=0;entryX=0.05;entryY=0.75;entryDx=0;entryDy=0;entryPerimeter=0;" edge="1" parent="1" target="kWq-YQ7jtwYpPsozGL0Q-4">
          <mxGeometry relative="1" as="geometry">
            <mxPoint x="110" y="390" as="sourcePoint" />
            <mxPoint x="222" y="141" as="targetPoint" />
          </mxGeometry>
        </mxCell>
        <mxCell id="kWq-YQ7jtwYpPsozGL0Q-20" value="" style="endArrow=none;html=1;rounded=0;entryX=0;entryY=1;entryDx=0;entryDy=0;" edge="1" parent="1" target="kWq-YQ7jtwYpPsozGL0Q-7">
          <mxGeometry relative="1" as="geometry">
            <mxPoint x="110" y="400" as="sourcePoint" />
            <mxPoint x="214" y="203" as="targetPoint" />
          </mxGeometry>
        </mxCell>
        <mxCell id="kWq-YQ7jtwYpPsozGL0Q-21" value="" style="endArrow=none;html=1;rounded=0;entryX=0.04;entryY=0.675;entryDx=0;entryDy=0;entryPerimeter=0;" edge="1" parent="1" target="kWq-YQ7jtwYpPsozGL0Q-6">
          <mxGeometry relative="1" as="geometry">
            <mxPoint x="110" y="400" as="sourcePoint" />
            <mxPoint x="225" y="254" as="targetPoint" />
          </mxGeometry>
        </mxCell>
        <mxCell id="kWq-YQ7jtwYpPsozGL0Q-22" value="" style="endArrow=none;html=1;rounded=0;entryX=0;entryY=0.5;entryDx=0;entryDy=0;" edge="1" parent="1" target="kWq-YQ7jtwYpPsozGL0Q-10">
          <mxGeometry relative="1" as="geometry">
            <mxPoint x="110" y="400" as="sourcePoint" />
            <mxPoint x="214" y="307" as="targetPoint" />
          </mxGeometry>
        </mxCell>
        <mxCell id="kWq-YQ7jtwYpPsozGL0Q-23" value="" style="endArrow=none;html=1;rounded=0;" edge="1" parent="1" target="kWq-YQ7jtwYpPsozGL0Q-11">
          <mxGeometry relative="1" as="geometry">
            <mxPoint x="110" y="400" as="sourcePoint" />
            <mxPoint x="210" y="360" as="targetPoint" />
          </mxGeometry>
        </mxCell>
        <mxCell id="kWq-YQ7jtwYpPsozGL0Q-24" value="" style="endArrow=none;html=1;rounded=0;" edge="1" parent="1" target="kWq-YQ7jtwYpPsozGL0Q-12">
          <mxGeometry relative="1" as="geometry">
            <mxPoint x="110" y="406" as="sourcePoint" />
            <mxPoint x="213" y="420" as="targetPoint" />
          </mxGeometry>
        </mxCell>
        <mxCell id="kWq-YQ7jtwYpPsozGL0Q-25" value="" style="endArrow=none;html=1;rounded=0;" edge="1" parent="1" target="kWq-YQ7jtwYpPsozGL0Q-13">
          <mxGeometry relative="1" as="geometry">
            <mxPoint x="110" y="416" as="sourcePoint" />
            <mxPoint x="229" y="474" as="targetPoint" />
          </mxGeometry>
        </mxCell>
        <mxCell id="kWq-YQ7jtwYpPsozGL0Q-26" value="" style="endArrow=none;html=1;rounded=0;entryX=0;entryY=0;entryDx=0;entryDy=0;" edge="1" parent="1" target="kWq-YQ7jtwYpPsozGL0Q-14">
          <mxGeometry relative="1" as="geometry">
            <mxPoint x="90" y="420" as="sourcePoint" />
            <mxPoint x="218" y="526" as="targetPoint" />
          </mxGeometry>
        </mxCell>
        <mxCell id="kWq-YQ7jtwYpPsozGL0Q-27" value="" style="endArrow=none;html=1;rounded=0;entryX=0;entryY=0.5;entryDx=0;entryDy=0;" edge="1" parent="1" target="kWq-YQ7jtwYpPsozGL0Q-16">
          <mxGeometry relative="1" as="geometry">
            <mxPoint x="75" y="420" as="sourcePoint" />
            <mxPoint x="210" y="586" as="targetPoint" />
          </mxGeometry>
        </mxCell>
        <mxCell id="kWq-YQ7jtwYpPsozGL0Q-28" value="" style="endArrow=none;html=1;rounded=0;entryX=0;entryY=0;entryDx=0;entryDy=0;" edge="1" parent="1" target="kWq-YQ7jtwYpPsozGL0Q-15">
          <mxGeometry relative="1" as="geometry">
            <mxPoint x="42.5" y="420" as="sourcePoint" />
            <mxPoint x="177.5" y="660" as="targetPoint" />
          </mxGeometry>
        </mxCell>
        <mxCell id="kWq-YQ7jtwYpPsozGL0Q-29" value="&lt;u&gt;customer_id&lt;/u&gt;" style="ellipse;whiteSpace=wrap;html=1;align=center;" vertex="1" parent="1">
          <mxGeometry x="400" y="788" width="100" height="40" as="geometry" />
        </mxCell>
        <mxCell id="kWq-YQ7jtwYpPsozGL0Q-30" value="forename" style="ellipse;whiteSpace=wrap;html=1;align=center;" vertex="1" parent="1">
          <mxGeometry x="400" y="848" width="100" height="40" as="geometry" />
        </mxCell>
        <mxCell id="kWq-YQ7jtwYpPsozGL0Q-31" value="surename" style="ellipse;whiteSpace=wrap;html=1;align=center;" vertex="1" parent="1">
          <mxGeometry x="400" y="908" width="100" height="40" as="geometry" />
        </mxCell>
        <mxCell id="kWq-YQ7jtwYpPsozGL0Q-32" value="nif" style="ellipse;whiteSpace=wrap;html=1;align=center;" vertex="1" parent="1">
          <mxGeometry x="400" y="968" width="100" height="40" as="geometry" />
        </mxCell>
        <mxCell id="kWq-YQ7jtwYpPsozGL0Q-33" value="driver_license" style="ellipse;whiteSpace=wrap;html=1;align=center;" vertex="1" parent="1">
          <mxGeometry x="400" y="1028" width="100" height="40" as="geometry" />
        </mxCell>
        <mxCell id="kWq-YQ7jtwYpPsozGL0Q-34" value="address" style="ellipse;whiteSpace=wrap;html=1;align=center;" vertex="1" parent="1">
          <mxGeometry x="400" y="1088" width="100" height="40" as="geometry" />
        </mxCell>
        <mxCell id="kWq-YQ7jtwYpPsozGL0Q-35" value="phone" style="ellipse;whiteSpace=wrap;html=1;align=center;" vertex="1" parent="1">
          <mxGeometry x="400" y="1208" width="100" height="40" as="geometry" />
        </mxCell>
        <mxCell id="kWq-YQ7jtwYpPsozGL0Q-36" value="email" style="ellipse;whiteSpace=wrap;html=1;align=center;" vertex="1" parent="1">
          <mxGeometry x="400" y="1148" width="100" height="40" as="geometry" />
        </mxCell>
        <mxCell id="kWq-YQ7jtwYpPsozGL0Q-37" value="&lt;u&gt;reservation_id&lt;/u&gt;" style="ellipse;whiteSpace=wrap;html=1;align=center;" vertex="1" parent="1">
          <mxGeometry x="400" y="1320" width="100" height="40" as="geometry" />
        </mxCell>
        <mxCell id="kWq-YQ7jtwYpPsozGL0Q-38" value="customer_id" style="ellipse;whiteSpace=wrap;html=1;align=center;" vertex="1" parent="1">
          <mxGeometry x="400" y="1380" width="100" height="40" as="geometry" />
        </mxCell>
        <mxCell id="kWq-YQ7jtwYpPsozGL0Q-39" value="car_id" style="ellipse;whiteSpace=wrap;html=1;align=center;" vertex="1" parent="1">
          <mxGeometry x="400" y="1440" width="100" height="40" as="geometry" />
        </mxCell>
        <mxCell id="kWq-YQ7jtwYpPsozGL0Q-40" value="date_in" style="ellipse;whiteSpace=wrap;html=1;align=center;" vertex="1" parent="1">
          <mxGeometry x="400" y="1500" width="100" height="40" as="geometry" />
        </mxCell>
        <mxCell id="kWq-YQ7jtwYpPsozGL0Q-41" value="date_out" style="ellipse;whiteSpace=wrap;html=1;align=center;" vertex="1" parent="1">
          <mxGeometry x="400" y="1560" width="100" height="40" as="geometry" />
        </mxCell>
        <mxCell id="kWq-YQ7jtwYpPsozGL0Q-42" value="price_per_day" style="ellipse;whiteSpace=wrap;html=1;align=center;" vertex="1" parent="1">
          <mxGeometry x="400" y="1620" width="100" height="40" as="geometry" />
        </mxCell>
        <mxCell id="kWq-YQ7jtwYpPsozGL0Q-43" value="" style="endArrow=none;html=1;rounded=0;entryX=0;entryY=0.5;entryDx=0;entryDy=0;" edge="1" parent="1" target="kWq-YQ7jtwYpPsozGL0Q-29">
          <mxGeometry relative="1" as="geometry">
            <mxPoint x="80" y="998" as="sourcePoint" />
            <mxPoint x="240" y="998" as="targetPoint" />
          </mxGeometry>
        </mxCell>
        <mxCell id="kWq-YQ7jtwYpPsozGL0Q-44" value="" style="endArrow=none;html=1;rounded=0;entryX=0;entryY=0.5;entryDx=0;entryDy=0;" edge="1" parent="1" target="kWq-YQ7jtwYpPsozGL0Q-30">
          <mxGeometry relative="1" as="geometry">
            <mxPoint x="100" y="998" as="sourcePoint" />
            <mxPoint x="420" y="808" as="targetPoint" />
          </mxGeometry>
        </mxCell>
        <mxCell id="kWq-YQ7jtwYpPsozGL0Q-45" value="" style="endArrow=none;html=1;rounded=0;entryX=0;entryY=0.5;entryDx=0;entryDy=0;" edge="1" parent="1" target="kWq-YQ7jtwYpPsozGL0Q-31">
          <mxGeometry relative="1" as="geometry">
            <mxPoint x="110" y="1008" as="sourcePoint" />
            <mxPoint x="410" y="878" as="targetPoint" />
          </mxGeometry>
        </mxCell>
        <mxCell id="kWq-YQ7jtwYpPsozGL0Q-46" value="" style="endArrow=none;html=1;rounded=0;entryX=0;entryY=0.5;entryDx=0;entryDy=0;" edge="1" parent="1" target="kWq-YQ7jtwYpPsozGL0Q-32">
          <mxGeometry relative="1" as="geometry">
            <mxPoint x="110" y="1020" as="sourcePoint" />
            <mxPoint x="400" y="940" as="targetPoint" />
          </mxGeometry>
        </mxCell>
        <mxCell id="kWq-YQ7jtwYpPsozGL0Q-47" value="" style="endArrow=none;html=1;rounded=0;entryX=0;entryY=0.5;entryDx=0;entryDy=0;exitX=1;exitY=0.75;exitDx=0;exitDy=0;" edge="1" parent="1" source="kWq-YQ7jtwYpPsozGL0Q-9" target="kWq-YQ7jtwYpPsozGL0Q-33">
          <mxGeometry relative="1" as="geometry">
            <mxPoint x="110" y="1034" as="sourcePoint" />
            <mxPoint x="400" y="1002" as="targetPoint" />
          </mxGeometry>
        </mxCell>
        <mxCell id="kWq-YQ7jtwYpPsozGL0Q-48" value="" style="endArrow=none;html=1;rounded=0;entryX=0;entryY=0.3;entryDx=0;entryDy=0;exitX=1;exitY=0.75;exitDx=0;exitDy=0;entryPerimeter=0;" edge="1" parent="1" target="kWq-YQ7jtwYpPsozGL0Q-34">
          <mxGeometry relative="1" as="geometry">
            <mxPoint x="110" y="1038" as="sourcePoint" />
            <mxPoint x="400" y="1058" as="targetPoint" />
          </mxGeometry>
        </mxCell>
        <mxCell id="kWq-YQ7jtwYpPsozGL0Q-49" value="" style="endArrow=none;html=1;rounded=0;exitX=1;exitY=0.75;exitDx=0;exitDy=0;" edge="1" parent="1" target="kWq-YQ7jtwYpPsozGL0Q-36">
          <mxGeometry relative="1" as="geometry">
            <mxPoint x="90" y="1038" as="sourcePoint" />
            <mxPoint x="380" y="1100" as="targetPoint" />
          </mxGeometry>
        </mxCell>
        <mxCell id="kWq-YQ7jtwYpPsozGL0Q-50" value="" style="endArrow=none;html=1;rounded=0;exitX=1;exitY=0.75;exitDx=0;exitDy=0;" edge="1" parent="1" target="kWq-YQ7jtwYpPsozGL0Q-35">
          <mxGeometry relative="1" as="geometry">
            <mxPoint x="70" y="1038" as="sourcePoint" />
            <mxPoint x="393" y="1155" as="targetPoint" />
          </mxGeometry>
        </mxCell>
        <mxCell id="kWq-YQ7jtwYpPsozGL0Q-51" value="" style="endArrow=none;html=1;rounded=0;entryX=0;entryY=0.5;entryDx=0;entryDy=0;" edge="1" parent="1" target="kWq-YQ7jtwYpPsozGL0Q-37">
          <mxGeometry relative="1" as="geometry">
            <mxPoint x="90" y="1470" as="sourcePoint" />
            <mxPoint x="250" y="1470" as="targetPoint" />
          </mxGeometry>
        </mxCell>
        <mxCell id="kWq-YQ7jtwYpPsozGL0Q-52" value="" style="endArrow=none;html=1;rounded=0;entryX=0;entryY=0.5;entryDx=0;entryDy=0;" edge="1" parent="1" target="kWq-YQ7jtwYpPsozGL0Q-38">
          <mxGeometry relative="1" as="geometry">
            <mxPoint x="120" y="1480" as="sourcePoint" />
            <mxPoint x="430" y="1350" as="targetPoint" />
          </mxGeometry>
        </mxCell>
        <mxCell id="kWq-YQ7jtwYpPsozGL0Q-53" value="" style="endArrow=none;html=1;rounded=0;entryX=0;entryY=0.5;entryDx=0;entryDy=0;" edge="1" parent="1" target="kWq-YQ7jtwYpPsozGL0Q-39">
          <mxGeometry relative="1" as="geometry">
            <mxPoint x="120" y="1490" as="sourcePoint" />
            <mxPoint x="400" y="1410" as="targetPoint" />
          </mxGeometry>
        </mxCell>
        <mxCell id="kWq-YQ7jtwYpPsozGL0Q-54" value="" style="endArrow=none;html=1;rounded=0;entryX=0;entryY=0.5;entryDx=0;entryDy=0;" edge="1" parent="1" target="kWq-YQ7jtwYpPsozGL0Q-40">
          <mxGeometry relative="1" as="geometry">
            <mxPoint x="120" y="1500" as="sourcePoint" />
            <mxPoint x="400" y="1470" as="targetPoint" />
          </mxGeometry>
        </mxCell>
        <mxCell id="kWq-YQ7jtwYpPsozGL0Q-55" value="" style="endArrow=none;html=1;rounded=0;entryX=0.07;entryY=0.25;entryDx=0;entryDy=0;entryPerimeter=0;" edge="1" parent="1" target="kWq-YQ7jtwYpPsozGL0Q-41">
          <mxGeometry relative="1" as="geometry">
            <mxPoint x="110" y="1510" as="sourcePoint" />
            <mxPoint x="390" y="1530" as="targetPoint" />
          </mxGeometry>
        </mxCell>
        <mxCell id="kWq-YQ7jtwYpPsozGL0Q-56" value="" style="endArrow=none;html=1;rounded=0;entryX=0;entryY=0.5;entryDx=0;entryDy=0;" edge="1" parent="1" target="kWq-YQ7jtwYpPsozGL0Q-42">
          <mxGeometry relative="1" as="geometry">
            <mxPoint x="90" y="1510" as="sourcePoint" />
            <mxPoint x="387" y="1570" as="targetPoint" />
          </mxGeometry>
        </mxCell>
        <mxCell id="kWq-YQ7jtwYpPsozGL0Q-57" value="&lt;div&gt;(1,1)&lt;/div&gt;" style="text;html=1;align=center;verticalAlign=middle;resizable=0;points=[];autosize=1;strokeColor=none;fillColor=none;" vertex="1" parent="1">
          <mxGeometry x="354" y="43" width="50" height="30" as="geometry" />
        </mxCell>
        <mxCell id="kWq-YQ7jtwYpPsozGL0Q-65" value="&lt;div&gt;(1,1)&lt;/div&gt;" style="text;html=1;align=center;verticalAlign=middle;resizable=0;points=[];autosize=1;strokeColor=none;fillColor=none;" vertex="1" parent="1">
          <mxGeometry x="354" y="790" width="50" height="30" as="geometry" />
        </mxCell>
        <mxCell id="kWq-YQ7jtwYpPsozGL0Q-66" value="&lt;div&gt;(1,1)&lt;/div&gt;" style="text;html=1;align=center;verticalAlign=middle;resizable=0;points=[];autosize=1;strokeColor=none;fillColor=none;" vertex="1" parent="1">
          <mxGeometry x="355" y="1320" width="50" height="30" as="geometry" />
        </mxCell>
        <mxCell id="kWq-YQ7jtwYpPsozGL0Q-67" value="&lt;div&gt;(1,1)&lt;/div&gt;" style="text;html=1;align=center;verticalAlign=middle;resizable=0;points=[];autosize=1;strokeColor=none;fillColor=none;" vertex="1" parent="1">
          <mxGeometry x="355" y="1377" width="50" height="30" as="geometry" />
        </mxCell>
        <mxCell id="kWq-YQ7jtwYpPsozGL0Q-68" value="&lt;div&gt;(1,1)&lt;/div&gt;" style="text;html=1;align=center;verticalAlign=middle;resizable=0;points=[];autosize=1;strokeColor=none;fillColor=none;" vertex="1" parent="1">
          <mxGeometry x="355" y="1435" width="50" height="30" as="geometry" />
        </mxCell>
        <mxCell id="kWq-YQ7jtwYpPsozGL0Q-69" value="CUSTOMER" style="whiteSpace=wrap;html=1;align=center;" vertex="1" parent="1">
          <mxGeometry x="194" y="1880" width="100" height="40" as="geometry" />
        </mxCell>
        <mxCell id="kWq-YQ7jtwYpPsozGL0Q-70" value="" style="line;strokeWidth=1;rotatable=0;dashed=0;labelPosition=right;align=left;verticalAlign=middle;spacingTop=0;spacingLeft=6;points=[];portConstraint=eastwest;" vertex="1" parent="1">
          <mxGeometry x="294" y="1895" width="60" height="10" as="geometry" />
        </mxCell>
        <mxCell id="kWq-YQ7jtwYpPsozGL0Q-71" value="RESERVA" style="shape=rhombus;perimeter=rhombusPerimeter;whiteSpace=wrap;html=1;align=center;" vertex="1" parent="1">
          <mxGeometry x="354" y="1870" width="120" height="60" as="geometry" />
        </mxCell>
        <mxCell id="kWq-YQ7jtwYpPsozGL0Q-72" value="CAR" style="whiteSpace=wrap;html=1;align=center;" vertex="1" parent="1">
          <mxGeometry x="534" y="1880" width="100" height="40" as="geometry" />
        </mxCell>
        <mxCell id="kWq-YQ7jtwYpPsozGL0Q-73" value="" style="line;strokeWidth=1;rotatable=0;dashed=0;labelPosition=right;align=left;verticalAlign=middle;spacingTop=0;spacingLeft=6;points=[];portConstraint=eastwest;" vertex="1" parent="1">
          <mxGeometry x="474" y="1895" width="60" height="10" as="geometry" />
        </mxCell>
        <mxCell id="kWq-YQ7jtwYpPsozGL0Q-74" value="Atributo obligatorio y simple" style="text;html=1;align=center;verticalAlign=middle;resizable=0;points=[];autosize=1;strokeColor=none;fillColor=none;" vertex="1" parent="1">
          <mxGeometry x="500" y="45" width="170" height="30" as="geometry" />
        </mxCell>
        <mxCell id="kWq-YQ7jtwYpPsozGL0Q-77" value="Atributo obligatorio y simple" style="text;html=1;align=center;verticalAlign=middle;resizable=0;points=[];autosize=1;strokeColor=none;fillColor=none;" vertex="1" parent="1">
          <mxGeometry x="500" y="793" width="170" height="30" as="geometry" />
        </mxCell>
        <mxCell id="kWq-YQ7jtwYpPsozGL0Q-78" value="Atributo obligatorio y simple" style="text;html=1;align=center;verticalAlign=middle;resizable=0;points=[];autosize=1;strokeColor=none;fillColor=none;" vertex="1" parent="1">
          <mxGeometry x="500" y="1325" width="170" height="30" as="geometry" />
        </mxCell>
        <mxCell id="kWq-YQ7jtwYpPsozGL0Q-79" value="&lt;div&gt;(1,1)&lt;/div&gt;" style="text;html=1;align=center;verticalAlign=middle;resizable=0;points=[];autosize=1;strokeColor=none;fillColor=none;" vertex="1" parent="1">
          <mxGeometry x="357" y="113" width="50" height="30" as="geometry" />
        </mxCell>
        <mxCell id="kWq-YQ7jtwYpPsozGL0Q-80" value="&lt;div&gt;(1,1)&lt;/div&gt;" style="text;html=1;align=center;verticalAlign=middle;resizable=0;points=[];autosize=1;strokeColor=none;fillColor=none;" vertex="1" parent="1">
          <mxGeometry x="358" y="172" width="50" height="30" as="geometry" />
        </mxCell>
        <mxCell id="kWq-YQ7jtwYpPsozGL0Q-81" value="&lt;div&gt;(1,1)&lt;/div&gt;" style="text;html=1;align=center;verticalAlign=middle;resizable=0;points=[];autosize=1;strokeColor=none;fillColor=none;" vertex="1" parent="1">
          <mxGeometry x="361" y="237" width="50" height="30" as="geometry" />
        </mxCell>
        <mxCell id="kWq-YQ7jtwYpPsozGL0Q-82" value="&lt;div&gt;(1,1)&lt;/div&gt;" style="text;html=1;align=center;verticalAlign=middle;resizable=0;points=[];autosize=1;strokeColor=none;fillColor=none;" vertex="1" parent="1">
          <mxGeometry x="357" y="285" width="50" height="30" as="geometry" />
        </mxCell>
        <mxCell id="kWq-YQ7jtwYpPsozGL0Q-83" value="&lt;div&gt;(1,1)&lt;/div&gt;" style="text;html=1;align=center;verticalAlign=middle;resizable=0;points=[];autosize=1;strokeColor=none;fillColor=none;" vertex="1" parent="1">
          <mxGeometry x="361" y="360" width="50" height="30" as="geometry" />
        </mxCell>
        <mxCell id="kWq-YQ7jtwYpPsozGL0Q-84" value="&lt;div&gt;(1,1)&lt;/div&gt;" style="text;html=1;align=center;verticalAlign=middle;resizable=0;points=[];autosize=1;strokeColor=none;fillColor=none;" vertex="1" parent="1">
          <mxGeometry x="361" y="410" width="50" height="30" as="geometry" />
        </mxCell>
        <mxCell id="kWq-YQ7jtwYpPsozGL0Q-85" value="&lt;div&gt;(1,1)&lt;/div&gt;" style="text;html=1;align=center;verticalAlign=middle;resizable=0;points=[];autosize=1;strokeColor=none;fillColor=none;" vertex="1" parent="1">
          <mxGeometry x="361" y="465" width="50" height="30" as="geometry" />
        </mxCell>
        <mxCell id="kWq-YQ7jtwYpPsozGL0Q-86" value="&lt;div&gt;(1,1)&lt;/div&gt;" style="text;html=1;align=center;verticalAlign=middle;resizable=0;points=[];autosize=1;strokeColor=none;fillColor=none;" vertex="1" parent="1">
          <mxGeometry x="361" y="520" width="50" height="30" as="geometry" />
        </mxCell>
        <mxCell id="kWq-YQ7jtwYpPsozGL0Q-87" value="&lt;div&gt;(1,1)&lt;/div&gt;" style="text;html=1;align=center;verticalAlign=middle;resizable=0;points=[];autosize=1;strokeColor=none;fillColor=none;" vertex="1" parent="1">
          <mxGeometry x="358" y="580" width="50" height="30" as="geometry" />
        </mxCell>
        <mxCell id="kWq-YQ7jtwYpPsozGL0Q-107" value="" style="ellipse;whiteSpace=wrap;html=1;fillColor=#000000;" vertex="1" parent="1">
          <mxGeometry x="210" y="1790" width="20" height="10" as="geometry" />
        </mxCell>
        <mxCell id="kWq-YQ7jtwYpPsozGL0Q-108" value="" style="ellipse;whiteSpace=wrap;html=1;fillColor=#FFFFFF;" vertex="1" parent="1">
          <mxGeometry x="274" y="1790" width="20" height="10" as="geometry" />
        </mxCell>
      </root>
    </mxGraphModel>
  </diagram>
</mxfile>
